<svg xmlns="http://www.w3.org/2000/svg" width="15.5" height="13.289" viewBox="0 0 15.5 13.289"><defs><style>.a{fill:none;stroke:#757575;stroke-linecap:round;stroke-linejoin:round;stroke-width:1.5px;}</style></defs><path class="a" d="M3,5.474v8.842a1.478,1.478,0,0,0,1.474,1.474H16.263V12.842M3,5.474A1.478,1.478,0,0,0,4.474,6.947H14.789M3,5.474A1.478,1.478,0,0,1,4.474,4H14.789V6.947m0,0h1.474V9.895m-3.684,1.474a1.478,1.478,0,0,1,1.474-1.474H17v2.947H14.053A1.474,1.474,0,0,1,12.579,11.368Z" transform="translate(-2.25 -3.25)"/></svg>